<mxfile host="Electron" modified="2023-12-26T03:12:16.961Z" agent="Mozilla/5.0 (Windows NT 10.0; Win64; x64) AppleWebKit/537.36 (KHTML, like Gecko) draw.io/22.1.2 Chrome/114.0.5735.289 Electron/25.9.4 Safari/537.36" etag="VQyOo9TrVYL8Bwbp2fTp" version="22.1.2" type="device">
  <diagram name="Page-1" id="58cdce13-f638-feb5-8d6f-7d28b1aa9fa0">
    <mxGraphModel dx="1728" dy="1847" grid="1" gridSize="10" guides="1" tooltips="1" connect="1" arrows="1" fold="1" page="1" pageScale="1" pageWidth="1100" pageHeight="850" background="none" math="0" shadow="0">
      <root>
        <mxCell id="0" />
        <mxCell id="1" parent="0" />
        <mxCell id="2a3bc250acf0617d-8" value="HVAC State machine" style="shape=umlFrame;whiteSpace=wrap;html=1;rounded=1;shadow=0;comic=0;labelBackgroundColor=none;strokeWidth=1;fontFamily=Verdana;fontSize=12;align=center;width=95;height=30;" parent="1" vertex="1">
          <mxGeometry x="55" y="-80" width="1050" height="745" as="geometry" />
        </mxCell>
        <mxCell id="382b91b5511bd0f7-1" value="" style="ellipse;html=1;shape=startState;fillColor=#000000;strokeColor=#ff0000;rounded=1;shadow=0;comic=0;labelBackgroundColor=none;fontFamily=Verdana;fontSize=12;fontColor=#000000;align=center;direction=south;" parent="1" vertex="1">
          <mxGeometry x="575" y="-30" width="30" height="30" as="geometry" />
        </mxCell>
        <mxCell id="fQ9lZJgQZ9tl0Cvu764c-8" style="edgeStyle=orthogonalEdgeStyle;rounded=0;orthogonalLoop=1;jettySize=auto;html=1;curved=1;" edge="1" parent="1" source="382b91b5511bd0f7-5" target="382b91b5511bd0f7-6">
          <mxGeometry relative="1" as="geometry" />
        </mxCell>
        <mxCell id="fQ9lZJgQZ9tl0Cvu764c-20" value="Temp &amp;gt; Low &amp;amp; Temp &amp;lt; High" style="edgeLabel;html=1;align=center;verticalAlign=middle;resizable=0;points=[];" vertex="1" connectable="0" parent="fQ9lZJgQZ9tl0Cvu764c-8">
          <mxGeometry x="0.1586" y="-60" relative="1" as="geometry">
            <mxPoint as="offset" />
          </mxGeometry>
        </mxCell>
        <mxCell id="fQ9lZJgQZ9tl0Cvu764c-11" style="edgeStyle=orthogonalEdgeStyle;rounded=0;orthogonalLoop=1;jettySize=auto;html=1;entryX=1;entryY=0.5;entryDx=0;entryDy=0;curved=1;" edge="1" parent="1" source="382b91b5511bd0f7-5" target="fQ9lZJgQZ9tl0Cvu764c-1">
          <mxGeometry relative="1" as="geometry">
            <Array as="points">
              <mxPoint x="890" y="550" />
            </Array>
          </mxGeometry>
        </mxCell>
        <mxCell id="fQ9lZJgQZ9tl0Cvu764c-17" value="Error" style="edgeLabel;html=1;align=center;verticalAlign=middle;resizable=0;points=[];" vertex="1" connectable="0" parent="fQ9lZJgQZ9tl0Cvu764c-11">
          <mxGeometry x="0.2022" y="-7" relative="1" as="geometry">
            <mxPoint as="offset" />
          </mxGeometry>
        </mxCell>
        <mxCell id="382b91b5511bd0f7-5" value="Cooling" style="rounded=1;whiteSpace=wrap;html=1;arcSize=24;fillColor=#ffffc0;strokeColor=#ff0000;shadow=0;comic=0;labelBackgroundColor=none;fontFamily=Verdana;fontSize=12;fontColor=#000000;align=center;" parent="1" vertex="1">
          <mxGeometry x="830" y="390" width="120" height="60" as="geometry" />
        </mxCell>
        <mxCell id="fQ9lZJgQZ9tl0Cvu764c-4" style="edgeStyle=orthogonalEdgeStyle;rounded=0;orthogonalLoop=1;jettySize=auto;html=1;entryX=0.5;entryY=0;entryDx=0;entryDy=0;curved=1;" edge="1" parent="1" source="382b91b5511bd0f7-6" target="382b91b5511bd0f7-10">
          <mxGeometry relative="1" as="geometry" />
        </mxCell>
        <mxCell id="fQ9lZJgQZ9tl0Cvu764c-14" value="Temp &amp;lt; Low" style="edgeLabel;html=1;align=center;verticalAlign=middle;resizable=0;points=[];" vertex="1" connectable="0" parent="fQ9lZJgQZ9tl0Cvu764c-4">
          <mxGeometry x="-0.2538" y="1" relative="1" as="geometry">
            <mxPoint as="offset" />
          </mxGeometry>
        </mxCell>
        <mxCell id="fQ9lZJgQZ9tl0Cvu764c-5" style="edgeStyle=orthogonalEdgeStyle;rounded=0;orthogonalLoop=1;jettySize=auto;html=1;curved=1;" edge="1" parent="1" source="382b91b5511bd0f7-6" target="382b91b5511bd0f7-9">
          <mxGeometry relative="1" as="geometry" />
        </mxCell>
        <mxCell id="fQ9lZJgQZ9tl0Cvu764c-13" value="Temp &amp;gt; High" style="edgeLabel;html=1;align=center;verticalAlign=middle;resizable=0;points=[];" vertex="1" connectable="0" parent="fQ9lZJgQZ9tl0Cvu764c-5">
          <mxGeometry x="-0.3833" y="1" relative="1" as="geometry">
            <mxPoint as="offset" />
          </mxGeometry>
        </mxCell>
        <mxCell id="382b91b5511bd0f7-6" value="Standby" style="rounded=1;whiteSpace=wrap;html=1;arcSize=24;fillColor=#ffffc0;strokeColor=#ff0000;shadow=0;comic=0;labelBackgroundColor=none;fontFamily=Verdana;fontSize=12;fontColor=#000000;align=center;" parent="1" vertex="1">
          <mxGeometry x="530" y="60" width="120" height="60" as="geometry" />
        </mxCell>
        <mxCell id="fQ9lZJgQZ9tl0Cvu764c-9" style="edgeStyle=orthogonalEdgeStyle;rounded=0;orthogonalLoop=1;jettySize=auto;html=1;curved=1;" edge="1" parent="1" source="382b91b5511bd0f7-7">
          <mxGeometry relative="1" as="geometry">
            <mxPoint x="590" y="120.00000000000023" as="targetPoint" />
          </mxGeometry>
        </mxCell>
        <mxCell id="fQ9lZJgQZ9tl0Cvu764c-21" value="Temp &amp;gt; Low &amp;amp; Temp &amp;lt; High" style="edgeLabel;html=1;align=center;verticalAlign=middle;resizable=0;points=[];" vertex="1" connectable="0" parent="fQ9lZJgQZ9tl0Cvu764c-9">
          <mxGeometry x="-0.3356" y="60" relative="1" as="geometry">
            <mxPoint as="offset" />
          </mxGeometry>
        </mxCell>
        <mxCell id="fQ9lZJgQZ9tl0Cvu764c-12" style="edgeStyle=orthogonalEdgeStyle;rounded=0;orthogonalLoop=1;jettySize=auto;html=1;entryX=0;entryY=0.5;entryDx=0;entryDy=0;curved=1;" edge="1" parent="1" source="382b91b5511bd0f7-7" target="fQ9lZJgQZ9tl0Cvu764c-1">
          <mxGeometry relative="1" as="geometry">
            <Array as="points">
              <mxPoint x="250" y="550" />
            </Array>
          </mxGeometry>
        </mxCell>
        <mxCell id="fQ9lZJgQZ9tl0Cvu764c-18" value="Error" style="edgeLabel;html=1;align=center;verticalAlign=middle;resizable=0;points=[];" vertex="1" connectable="0" parent="fQ9lZJgQZ9tl0Cvu764c-12">
          <mxGeometry x="0.2556" y="15" relative="1" as="geometry">
            <mxPoint as="offset" />
          </mxGeometry>
        </mxCell>
        <mxCell id="382b91b5511bd0f7-7" value="Heating" style="rounded=1;whiteSpace=wrap;html=1;arcSize=24;fillColor=#ffffc0;strokeColor=#ff0000;shadow=0;comic=0;labelBackgroundColor=none;fontFamily=Verdana;fontSize=12;fontColor=#000000;align=center;" parent="1" vertex="1">
          <mxGeometry x="190" y="390" width="120" height="60" as="geometry" />
        </mxCell>
        <mxCell id="fQ9lZJgQZ9tl0Cvu764c-6" style="edgeStyle=orthogonalEdgeStyle;rounded=0;orthogonalLoop=1;jettySize=auto;html=1;" edge="1" parent="1" source="382b91b5511bd0f7-9" target="382b91b5511bd0f7-5">
          <mxGeometry relative="1" as="geometry" />
        </mxCell>
        <mxCell id="382b91b5511bd0f7-9" value="Cooling_Wait" style="rounded=1;whiteSpace=wrap;html=1;arcSize=24;fillColor=#ffffc0;strokeColor=#ff0000;shadow=0;comic=0;labelBackgroundColor=none;fontFamily=Verdana;fontSize=12;fontColor=#000000;align=center;" parent="1" vertex="1">
          <mxGeometry x="830" y="170" width="120" height="60" as="geometry" />
        </mxCell>
        <mxCell id="fQ9lZJgQZ9tl0Cvu764c-7" style="edgeStyle=orthogonalEdgeStyle;rounded=0;orthogonalLoop=1;jettySize=auto;html=1;entryX=0.5;entryY=0;entryDx=0;entryDy=0;" edge="1" parent="1" source="382b91b5511bd0f7-10" target="382b91b5511bd0f7-7">
          <mxGeometry relative="1" as="geometry" />
        </mxCell>
        <mxCell id="382b91b5511bd0f7-10" value="Heating_Wait" style="rounded=1;whiteSpace=wrap;html=1;arcSize=24;fillColor=#ffffc0;strokeColor=#ff0000;shadow=0;comic=0;labelBackgroundColor=none;fontFamily=Verdana;fontSize=12;fontColor=#000000;align=center;" parent="1" vertex="1">
          <mxGeometry x="190" y="200" width="120" height="60" as="geometry" />
        </mxCell>
        <mxCell id="2a3bc250acf0617d-9" style="edgeStyle=orthogonalEdgeStyle;html=1;labelBackgroundColor=none;endArrow=open;endSize=8;strokeColor=#ff0000;fontFamily=Verdana;fontSize=12;align=left;" parent="1" source="382b91b5511bd0f7-1" target="382b91b5511bd0f7-6" edge="1">
          <mxGeometry relative="1" as="geometry" />
        </mxCell>
        <mxCell id="fQ9lZJgQZ9tl0Cvu764c-10" style="edgeStyle=orthogonalEdgeStyle;rounded=0;orthogonalLoop=1;jettySize=auto;html=1;entryX=0.25;entryY=1;entryDx=0;entryDy=0;curved=1;" edge="1" parent="1" source="fQ9lZJgQZ9tl0Cvu764c-1" target="382b91b5511bd0f7-6">
          <mxGeometry relative="1" as="geometry">
            <Array as="points">
              <mxPoint x="480" y="120" />
            </Array>
          </mxGeometry>
        </mxCell>
        <mxCell id="fQ9lZJgQZ9tl0Cvu764c-19" value="Error_release" style="edgeLabel;html=1;align=center;verticalAlign=middle;resizable=0;points=[];" vertex="1" connectable="0" parent="fQ9lZJgQZ9tl0Cvu764c-10">
          <mxGeometry x="-0.6028" y="-3" relative="1" as="geometry">
            <mxPoint as="offset" />
          </mxGeometry>
        </mxCell>
        <mxCell id="fQ9lZJgQZ9tl0Cvu764c-1" value="ERR_H" style="rounded=1;whiteSpace=wrap;html=1;arcSize=24;fillColor=#ffffc0;strokeColor=#ff0000;shadow=0;comic=0;labelBackgroundColor=none;fontFamily=Verdana;fontSize=12;fontColor=#000000;align=center;" vertex="1" parent="1">
          <mxGeometry x="420" y="520" width="120" height="60" as="geometry" />
        </mxCell>
      </root>
    </mxGraphModel>
  </diagram>
</mxfile>
